<svg id="SvgjsSvg1121" width="256" height="256" xmlns="http://www.w3.org/2000/svg" version="1.1" xmlns:xlink="http://www.w3.org/1999/xlink" xmlns:svgjs="http://svgjs.com/svgjs"><defs id="SvgjsDefs1122"></defs><g id="SvgjsG1123"><svg xmlns="http://www.w3.org/2000/svg" viewBox="0 0 64 64" width="256" height="256"><path fill="#209fdc" d="M60.5 56.1c-.1-3.2-.3-6.3-1.3-9.3-.3-.9-.6-1.8-1.1-2.5-.6-.7-1.4-1.5-2.3-1.7-2.1-.6-4.1-1.1-6.2-1.6-3.1-.8-6.3-1.6-9.4-2.3-.2 0-.4 0-.7-.1 0 .1-.1.3-.1.4-.5 2-1.1 4-1.7 6-.7 2.4-1.6 4.7-2.4 7.1-.1.3-.2.5-.3.8-.1-1.1-.3-2.5-.5-3.9-.3-2.6-.7-5.1-.7-5.2.1-.3.2-.6.4-.8 0 0 0-.1.1-.1.1-.2.1-.3.2-.5 0-.1.1-.1.1-.2.1-.2.2-.4.2-.7 0-.2-.1-.4-.2-.6v-.1-.1c0-.1-.1-.1-.1-.2v-.1c0-.1-.1-.1-.2-.2s-.2-.1-.3-.1h-4.2c-.1 0-.3.1-.4.3v.1c-.1.1-.2.3-.2.6 0 .1-.1.2-.1.4 0 .3.1.5.2.7v.1l.1.1c.1.2.1.3.2.5v.1c.1.3.3.6.4.9 0 .1-.1.6-.2 1.5-.3 2-.7 5.4-1 7.6-.1-.3-.3-.5-.3-.8-.8-2.4-1.7-4.7-2.4-7.1-.6-2-1.1-4-1.7-6 0-.1-.1-.3-.1-.4-.3 0-.5 0-.7.1l-8.4 2.1c-2.4.6-4.8 1.2-7.2 1.9-.8.2-1.6.9-2.1 1.6l-.1.1c-.5.5-.8 1.4-1.1 2.2-.9 2.7-1.1 5.5-1.2 8.3v1.1c-.1 2-.4 1.6 1.6 2.4.5.2 1 .4 1.5.5 3.5 1.1 7.1 1.9 10.7 2.4 3.5.5 7.1.7 10.7.9.7 0 6.2.1 6.2.1.7 0 1.4 0 2.1-.1 5.7-.2 11.3-.7 16.8-2 1.5-.4 3.1-.8 4.6-1.3.5-.2 1-.3 1.5-.5 1.7-.8 1.4-.4 1.3-2.4zM42.9 17.9c0 .6 0 1.3-.1 1.9-.1 1-.2 2.1-.4 3.1-2.2.9-4.4 1.5-6.8 1.8-.5.1-1 .1-1.6.2-.1 0-.3-.1-.4-.2-.5-.6-1.1-1-1.9-.9h-2.4c-1.3 0-2.2.9-2.3 2.1-.1 1.3.7 2.3 2 2.5 1 .1 2.1.1 3.1 0 .7 0 1.2-.5 1.6-1.1.1-.1.2-.3.4-.3 2.6-.2 5.2-.7 7.7-1.6-.3 1.1-.7 2.2-1.2 3.4-.1.1-.1.3-.2.4-.8 1.8-2 3.3-3.3 4.6-1.4 1.4-3.2 2.1-5 2-1.8.1-3.6-.6-5-2l-.2-.2c-1.3-1.3-2.4-2.7-3.1-4.4-1.6-3.5-2.5-7.2-2.5-11.1v-1.6c.2-1.9.7-3.6 1.7-5.1.9-1.4 2.3-2.6 4.1-3.3 1.6-.6 3.3-.9 5.1-1 1.7 0 3.4.3 5.1 1 3.6 1.5 5.5 4.7 5.8 8.4-.2.3-.2.8-.2 1.4z" class="color343433 svgShape"></path><path fill="#209fdc" d="M49.5 16.3c-.1-.6-.2-1.4-.6-1.8-.2-.2-1.1-.4-1.1-.4l-.7-1.9c-1.7-4.3-4.6-7.3-8.6-9.2-2.1-.9-4.2-1.4-6.3-1.3h-.4c-2.1 0-4.2.4-6.3 1.3-4.1 1.8-6.9 4.9-8.6 9.2l-.7 1.9c0 .1-1 .2-1.1.4-.4.5-.4 1.3-.6 1.8-.2.8-.2 1.7-.2 2.5.1 1 .3 2.1.6 3.1.3.7.7 2.2 1.7 2.1.5-.1 1.6-.2 2.2-.2h.3c.3 0 .6-.3.6-.7-.1-.7-.1-1.3-.2-2-.2-1.5-.3-2.9-.5-4.4-.1-.8-.4-1.7-.1-2.6C20.8 7.9 26.2 4 32 4.3 37.8 4 43.2 7.9 45.2 14c.3.8 0 1.7-.1 2.6-.2 1.5-.3 2.9-.5 4.4-.1.7-.1 1.3-.2 2 0 .3.2.7.6.7h.3c.5.1 1.6.2 2.2.2 1 .1 1.4-1.3 1.7-2.1.3-1 .5-2 .6-3.1-.1-.8-.1-1.6-.3-2.4z" class="color343433 svgShape"></path></svg></g></svg>