<svg id="SvgjsSvg1066" width="256" height="256" xmlns="http://www.w3.org/2000/svg" version="1.1" xmlns:xlink="http://www.w3.org/1999/xlink" xmlns:svgjs="http://svgjs.com/svgjs"><defs id="SvgjsDefs1067"></defs><g id="SvgjsG1068"><svg xmlns="http://www.w3.org/2000/svg" data-name="glyph copy" viewBox="0 0 64 64" width="256" height="256"><defs><linearGradient id="a" x1="4" x2="60" y1="32" y2="32" gradientUnits="userSpaceOnUse"><stop offset="0" stop-color="#209FDC" class="stopColor00c0ff svgShape"></stop><stop offset="1" stop-color="#55d1ff" class="stopColor5558ff svgShape"></stop></linearGradient></defs><path fill="url(#a)" d="M40.50061,9.28647c0-1.60995,2.09994-4.18993,2.73994-4.93991a1.04014,1.04014,0,0,1,1.52,0c.64.75,2.73994,3.33,2.73994,4.93991a3.50006,3.50006,0,0,1-6.99987,0Zm-20.49963,3.47a3.4847,3.4847,0,0,0,3.49994-3.47c0-1.60995-2.09994-4.18993-2.74-4.93991a1.04014,1.04014,0,0,0-1.52,0c-.64.75-2.73994,3.33-2.73994,4.93991A3.4847,3.4847,0,0,0,20.001,12.75644ZM32.00076,23.5862a7.47716,7.47716,0,0,0,7.49987-7.43987c0-3.80992-6.04988-10.98979-6.73987-11.79977a1.04014,1.04014,0,0,0-1.52,0c-.69.81-6.73987,7.98985-6.73987,11.79977A7.47715,7.47715,0,0,0,32.00076,23.5862ZM21.008,49.98911l-1.46915,3.99773H44.57463L43.2054,49.98911Zm38.98221-1.00334a5.02277,5.02277,0,0,1-3,4.58988,5.1058,5.1058,0,0,1-2,.41H46.6905l-1.82-5.31991a1.00017,1.00017,0,0,0-.95-.68H20.311a1.00182,1.00182,0,0,0-.94.66l-1.96,5.33993H9.01119a5.10589,5.10589,0,0,1-2-.41,4.99757,4.99757,0,0,1-2.98993-4.58988c.05-.61-.15-10.69982.14-10.94981a4.69274,4.69274,0,0,1,1.38-2.28994c2.02-1.69,4.24992-3.65,5.34994-4.74992h-3.16a2.71511,2.71511,0,0,1,0-5.42989c1.47.09,4.3-.35,5.54995.62.88994-2.24,1.95992-4.96994,2.76991-7.07989A5.00218,5.00218,0,0,1,20.681,16.00638h1.82v.13995a9.4638,9.4638,0,0,0,.18,1.86h-2a2.97119,2.97119,0,0,0-2.77,1.84994c-.27.71-4.4199,10.9998-4.49992,11.13981H50.59046c-.08-.14-4.24993-10.45983-4.50993-11.16984a2.96593,2.96593,0,0,0-2.76-1.81991h-2a9.463,9.463,0,0,0,.18-1.86v-.13995h1.82a4.99061,4.99061,0,0,1,4.61991,3.0799c.82,2.12,1.89,4.86,2.77992,7.09991,1.26-.96,4.05-.54,5.55-.62a2.71495,2.71495,0,1,1,0,5.42989h-3.16c1.09,1.09,3.31995,3.04994,5.29989,4.69993a4.73373,4.73373,0,0,1,1.44,2.33993C60.12025,38.306,59.93025,48.34577,59.99025,48.98577ZM19.441,42.4359,16.77106,38.436a1.01041,1.01041,0,0,0-.83-.44H8.0112a1.00294,1.00294,0,0,0-1,1,5.00172,5.00172,0,0,0,4.99991,4.99991H18.611a1.00328,1.00328,0,0,0,.83-1.56ZM43.26057,37.996H20.741a1.00435,1.00435,0,0,0-.83,1.56l2.67,3.99993a1.01053,1.01053,0,0,0,.82994.44H40.60058a1.01056,1.01056,0,0,0,.83-.44l2.66-3.99993A1.00594,1.00594,0,0,0,43.26057,37.996Zm13.72973,1a1.00293,1.00293,0,0,0-1-1H48.06047a1.0104,1.0104,0,0,0-.83.44L44.56054,42.4359a1.01211,1.01211,0,0,0,.83,1.56h6.59985A5.00172,5.00172,0,0,0,56.9903,38.996ZM5.01712,54.73646v2.24868a3.00713,3.00713,0,0,0,2.9983,2.9983H14.012a3.00713,3.00713,0,0,0,2.9983-2.9983v-.99943H9.01485A6.95073,6.95073,0,0,1,5.01712,54.73646Zm41.97611,1.24925v.99943a3.00713,3.00713,0,0,0,2.9983,2.9983h5.9966a3.00713,3.00713,0,0,0,2.99829-2.9983V54.73646a6.97637,6.97637,0,0,1-3.99773,1.24925Z"></path></svg></g></svg>