<svg id="SvgjsSvg1279" width="256" height="256" xmlns="http://www.w3.org/2000/svg" version="1.1" xmlns:xlink="http://www.w3.org/1999/xlink" xmlns:svgjs="http://svgjs.com/svgjs"><defs id="SvgjsDefs1280"></defs><g id="SvgjsG1281"><svg xmlns="http://www.w3.org/2000/svg" viewBox="0 0 16 16" width="256" height="256"><path style="line-height:normal;text-indent:0;text-align:start;text-decoration-line:none;text-decoration-style:solid;text-decoration-color:#000;text-transform:none;block-progression:tb;white-space:normal;isolation:auto;mix-blend-mode:normal;solid-color:#000;solid-opacity:1" d="M8.492 1c-4.136 0-7.5 3.364-7.5 7.5s3.364 7.5 7.5 7.5 7.5-3.364 7.5-7.5S12.628 1 8.492 1zm0 1c3.596 0 6.5 2.904 6.5 6.5s-2.904 6.5-6.5 6.5a6.492 6.492 0 0 1-6.5-6.5c0-3.596 2.904-6.5 6.5-6.5zm-.008 1.5a.5.5 0 0 0-.492.508V8.5a.5.5 0 0 0 .5.5h4.492a.5.5 0 1 0 0-1H8.992V4.008a.5.5 0 0 0-.508-.508z" color="#000" enable-background="accumulate" font-family="sans-serif" font-weight="400" overflow="visible" fill="#818181"  class="color000 svgShape"></path></svg></g></svg>