<svg xmlns="http://www.w3.org/2000/svg" viewBox="0 0 24 24" width="256" height="256"><g color="#000" fill="#000000" class="color000 svgShape"><path fill="#ee4c45" style="line-height:normal;text-indent:0;text-align:start;text-decoration-line:none;text-decoration-style:solid;text-decoration-color:#000;text-transform:none;block-progression:tb;white-space:normal;isolation:auto;mix-blend-mode:normal;solid-color:#000;solid-opacity:1" d="M12 1028.362c-6.626 0-12 5.374-12 12s5.374 12 12 12 12-5.374 12-12-5.374-12-12-12z" font-family="sans-serif" font-weight="400" overflow="visible" transform="translate(0 -1028.362)" class="coloree4c45 svgShape"></path><path fill="#ffffff" style="isolation:auto;mix-blend-mode:normal;solid-color:#000;solid-opacity:1" d="M10.5 1034.362v1h-3v1h9v-1h-3v-1h-3zm-2 3v9h7v-9h-7zm1 1h1v7h-1v-7zm2 0h1v7h-1v-7zm2 0h1v7h-1v-7z" overflow="visible" transform="translate(0 -1028.362)" class="colorfff svgShape"></path></g></svg>