<svg id="SvgjsSvg1516" width="256" height="256" xmlns="http://www.w3.org/2000/svg" version="1.1" xmlns:xlink="http://www.w3.org/1999/xlink" xmlns:svgjs="http://svgjs.com/svgjs"><defs id="SvgjsDefs1517"></defs><g id="SvgjsG1518"><svg xmlns="http://www.w3.org/2000/svg" viewBox="0 0 64 64" width="256" height="256"><path fill="#e678a0" d="M62.5 1.5h-9.67a26.002 26.002 0 0 0-21.983 12.116L26.5 20.5 7.157 28.237A9 9 0 0 0 1.5 36.593V42.5a9 9 0 0 0 9 9h52v-50z" class="colore678a0 svgShape"></path><path fill="#d2648c" d="M1.5 40.5v2a9 9 0 0 0 9 9h52v-2h-52a9 9 0 0 1-9-9z" class="colord2648c svgShape"></path><path fill="#fa8cb4" d="M52.83 1.5a26.002 26.002 0 0 0-21.983 12.116L26.5 20.5 7.157 28.237A9 9 0 0 0 1.5 36.593v2a9 9 0 0 1 5.657-8.356L26.5 22.5l4.348-6.884A25.999 25.999 0 0 1 52.83 3.5h9.67v-2h-9.67z" class="colorfa8cb4 svgShape"></path><path fill="#785ae6" d="M62.5 52h-52C5.262 52 1 47.738 1 42.5v-5.907a9.456 9.456 0 0 1 5.972-8.821l19.191-7.676 4.261-6.747C35.309 5.617 43.685 1 52.831 1H62.5a.5.5 0 0 1 .5.5v50a.5.5 0 0 1-.5.5zM52.831 2C44.03 2 35.97 6.442 31.271 13.883l-4.348 6.884a.497.497 0 0 1-.237.197L7.343 28.701A8.462 8.462 0 0 0 2 36.593V42.5c0 4.687 3.813 8.5 8.5 8.5H62V2h-9.169z" class="color785ae6 svgShape"></path><path fill="#aad2ff" d="m33.535 16.882-.359.637c-.75 1.333.213 2.981 1.743 2.981h27.364V4.729l-7.578-.08a24 24 0 0 0-21.17 12.233z" class="coloraad2ff svgShape"></path><path fill="#bee6ff" d="M54.706 4.65a23.998 23.998 0 0 0-21.171 12.232l-.359.637a1.979 1.979 0 0 0 .012 1.979l.347-.616A23.998 23.998 0 0 1 54.706 6.65l7.578.08v-2l-7.578-.08z" class="colorbee6ff svgShape"></path><path fill="#785ae6" d="M62.284 21H54.54a.5.5 0 0 1 0-1h7.244V5.224L54.7 5.149c-8.584-.106-16.522 4.499-20.729 11.978l-.358.638c-.265.47-.26 1.027.012 1.493.272.464.756.742 1.295.742a.5.5 0 0 1 0 1 2.476 2.476 0 0 1-2.158-1.238 2.478 2.478 0 0 1-.021-2.488l.358-.638c4.386-7.797 12.638-12.6 21.612-12.487l7.578.08a.5.5 0 0 1 .495.5V20.5a.5.5 0 0 1-.5.5z" class="color785ae6 svgShape"></path><path fill="#785ae6" d="M48.087 21h-4.132a.5.5 0 0 1 0-1h4.132a.5.5 0 0 1 0 1z" class="color785ae6 svgShape"></path><path fill="#ffe885" d="M9.401 29.5H4.979a8.986 8.986 0 0 0-3.384 5.841V38.5h6.14a3 3 0 0 0 2.622-1.543l1.667-3c1.111-2-.335-4.457-2.623-4.457z" class="colorffe885 svgShape"></path><path fill="#fffa96" d="M4.979 31.5h4.423c1.363 0 2.422.875 2.825 2.003.684-1.899-.707-4.003-2.825-4.003H4.979a8.986 8.986 0 0 0-3.384 5.841v2A8.986 8.986 0 0 1 4.979 31.5z" class="colorfffa96 svgShape"></path><path fill="#785ae6" d="M4.446 39H1.595a.5.5 0 0 1-.5-.5v-3.159c.349-2.521 1.618-4.71 3.577-6.235A.493.493 0 0 1 4.979 29h4.423c1.253 0 2.381.645 3.017 1.725s.652 2.379.043 3.475a.5.5 0 1 1-.874-.486 2.477 2.477 0 0 0-.031-2.482A2.48 2.48 0 0 0 9.401 30H5.153a8.445 8.445 0 0 0-3.063 5.41L2.094 38h2.352a.5.5 0 0 1 0 1zm3.289 0a.5.5 0 0 1 0-1c.907 0 1.745-.493 2.186-1.286a.5.5 0 1 1 .874.486 3.505 3.505 0 0 1-3.06 1.8z" class="color785ae6 svgShape"></path><circle cx="29.5" cy="50" r="12.5" fill="#8d7bd4" class="color8d7bd4 svgShape"></circle><path fill="#826ec8" d="M29.5 60.5c-6.566 0-11.939-5.065-12.45-11.5-.026.331-.05.662-.05 1 0 6.904 5.596 12.5 12.5 12.5S42 56.904 42 50c0-.338-.024-.669-.05-1-.511 6.435-5.884 11.5-12.45 11.5z" class="color826ec8 svgShape"></path><path fill="#968cd2" d="M29.5 39.5c6.566 0 11.939 5.065 12.45 11.5.026-.331.05-.662.05-1 0-6.904-5.596-12.5-12.5-12.5S17 43.096 17 50c0 .338.024.669.05 1 .511-6.435 5.884-11.5 12.45-11.5z" class="color968cd2 svgShape"></path><path fill="#785ae6" d="M29.5 63c-7.168 0-13-5.832-13-13s5.832-13 13-13 13 5.832 13 13-5.832 13-13 13zm0-25c-6.617 0-12 5.383-12 12s5.383 12 12 12 12-5.383 12-12-5.383-12-12-12z" class="color785ae6 svgShape"></path><circle cx="29.5" cy="50" r="6" fill="#826ec8" class="color826ec8 svgShape"></circle><path fill="#785ae6" d="M27.077 55.991a.519.519 0 0 1-.202-.042 6.572 6.572 0 0 1-2.236-1.633.5.5 0 1 1 .748-.664 5.57 5.57 0 0 0 1.893 1.382.5.5 0 0 1-.203.957zm5.105-.122a.5.5 0 0 1-.224-.947A5.475 5.475 0 0 0 35 50c0-3.033-2.467-5.5-5.5-5.5S24 46.967 24 50a.5.5 0 0 1-1 0c0-3.584 2.916-6.5 6.5-6.5S36 46.416 36 50a6.467 6.467 0 0 1-3.595 5.816.497.497 0 0 1-.223.053z" class="color785ae6 svgShape"></path><path fill="#ffe885" d="m54 8 1.414 2.586L58 12l-2.586 1.414L54 16l-1.414-2.586L50 12l2.586-1.414z" class="colorffe885 svgShape"></path><path fill="#fffa96" d="M52.586 11.586 54 10l1.414 1.586L58 12l-2.586-1.414L54 8l-1.414 2.586L50 12z" class="colorfffa96 svgShape"></path><path fill="#ffe885" d="m8 13 1.414 2.586L12 17l-2.586 1.414L8 21l-1.414-2.586L4 17l2.586-1.414z" class="colorffe885 svgShape"></path><path fill="#fffa96" d="M6.586 16.586 8 15l1.414 1.586L12 17l-2.586-1.414L8 13l-1.414 2.586L4 17z" class="colorfffa96 svgShape"></path><path fill="#ffe885" d="m24 1 2.121 3.879L30 7l-3.879 2.121L24 13l-2.121-3.879L18 7l3.879-2.121z" class="colorffe885 svgShape"></path><path fill="#fffa96" d="M21.879 6.879 24 3l2.121 3.879L29.172 7H30l-3.879-2.121L24 1l-2.121 3.879L18 7h.828z" class="colorfffa96 svgShape"></path><path fill="#785ae6" d="M54 16.5a.498.498 0 0 1-.438-.26l-1.344-2.457-2.457-1.344a.5.5 0 0 1-.001-.877l2.457-1.344 1.344-2.457c.175-.321.702-.321.877 0l1.344 2.457 2.457 1.344a.497.497 0 0 1 .001.876l-2.457 1.344-1.344 2.457A.5.5 0 0 1 54 16.5zM51.042 12l1.784.976a.501.501 0 0 1 .199.199L54 14.958l.976-1.784a.501.501 0 0 1 .199-.199L56.958 12l-1.784-.976a.501.501 0 0 1-.199-.199L54 9.042l-.976 1.784a.501.501 0 0 1-.199.199L51.042 12zM8 21.5a.498.498 0 0 1-.438-.26l-1.344-2.457-2.458-1.345a.498.498 0 0 1 0-.876l2.457-1.344 1.344-2.457c.175-.321.702-.321.877 0l1.344 2.457 2.457 1.344a.497.497 0 0 1 .001.876l-2.457 1.344-1.345 2.458A.498.498 0 0 1 8 21.5zM5.042 17l1.784.976a.501.501 0 0 1 .199.199L8 19.958l.976-1.784a.501.501 0 0 1 .199-.199L10.958 17l-1.784-.976a.501.501 0 0 1-.199-.199L8 14.042l-.976 1.784a.501.501 0 0 1-.199.199L5.042 17zM24 13.5a.498.498 0 0 1-.438-.26L21.51 9.49l-3.75-2.051a.501.501 0 0 1 0-.877l3.75-2.051 2.051-3.75c.175-.321.702-.321.877 0l2.051 3.75 3.75 2.051a.497.497 0 0 1 .001.876L26.49 9.49l-2.051 3.75a.501.501 0 0 1-.439.26zM19.042 7l3.077 1.683a.501.501 0 0 1 .199.199L24 11.958l1.683-3.077a.501.501 0 0 1 .199-.199L28.958 7l-3.077-1.683a.501.501 0 0 1-.199-.199L24 2.042l-1.683 3.077a.501.501 0 0 1-.199.199L19.042 7z" class="color785ae6 svgShape"></path><circle cx="49.5" cy="35.5" r="13" fill="#ffe885" class="colorffe885 svgShape"></circle><path fill="#f0dc78" d="M49.5 46.5c-6.842 0-12.437-5.289-12.949-12-.025.331-.051.662-.051 1 0 7.18 5.82 13 13 13s13-5.82 13-13a12.7 12.7 0 0 0-.051-1c-.512 6.711-6.107 12-12.949 12z" class="colorf0dc78 svgShape"></path><path fill="#fffa96" d="M49.5 24.5c6.842 0 12.437 5.289 12.949 12 .025-.331.051-.662.051-1 0-7.18-5.82-13-13-13s-13 5.82-13 13c0 .338.025.669.051 1 .512-6.711 6.107-12 12.949-12z" class="colorfffa96 svgShape"></path><path fill="#785ae6" d="M49.5 49C42.056 49 36 42.944 36 35.5c0-1.664.299-3.288.889-4.827a.5.5 0 1 1 .934.358A12.436 12.436 0 0 0 37 35.5C37 42.393 42.607 48 49.5 48S62 42.393 62 35.5 56.393 23 49.5 23c-1.38 0-2.736.223-4.03.664a.5.5 0 0 1-.322-.946A13.441 13.441 0 0 1 49.5 22C56.944 22 63 28.056 63 35.5S56.944 49 49.5 49zm-9.789-21.555a.5.5 0 0 1-.376-.83 13.53 13.53 0 0 1 2.595-2.295.499.499 0 1 1 .561.827 12.599 12.599 0 0 0-2.403 2.126.497.497 0 0 1-.377.172z" class="color785ae6 svgShape"></path><path fill="#ffb4be" d="M56.5 36.5a2 2 0 0 0-2 2v-3a2 2 0 1 0-4 0v-2a2 2 0 1 0-4 0v2a2 2 0 1 0-4 0v10a3 3 0 0 0-3-3 1 1 0 0 0-1 1v4.515c0 1.591.632 3.117 1.757 4.243L42.5 54.5l3 2.971V62.5h11v-5.029l1.571-3.662a5.99 5.99 0 0 0 .429-2.228V38.5a2 2 0 0 0-2-2z" class="colorffb4be svgShape"></path><path fill="#f0a0aa" d="M45.5 60.5h11v2h-11z" class="colorf0a0aa svgShape"></path><path fill="#ffc8d2" d="M48.5 33.5a2 2 0 0 1 2 2v-2a2 2 0 1 0-4 0v2a2 2 0 0 1 2-2zm8 3a2 2 0 0 0-2 2v2a2 2 0 1 1 4 0v-2a2 2 0 0 0-2-2zm-4-1a2 2 0 0 1 2 2v-2a2 2 0 1 0-4 0v2a2 2 0 0 1 2-2zm-8 0a2 2 0 0 1 2 2v-2a2 2 0 1 0-4 0v2a2 2 0 0 1 2-2zm-5 9a3 3 0 0 1 3 3v-2a3 3 0 0 0-3-3 1 1 0 0 0-1 1v2a1 1 0 0 1 1-1z" class="colorffc8d2 svgShape"></path><path fill="#f09696" d="M46.561 43a.5.5 0 0 1-.5-.5v-6.732a.5.5 0 0 1 1 0V42.5a.5.5 0 0 1-.5.5zm-4 7a.5.5 0 0 1-.5-.5v-3.732a.5.5 0 0 1 1 0V49.5a.5.5 0 0 1-.5.5zm8-7a.5.5 0 0 1-.5-.5v-6.732a.5.5 0 0 1 1 0V42.5a.5.5 0 0 1-.5.5zm4 0a.5.5 0 0 1-.5-.5v-3.732a.5.5 0 0 1 1 0V42.5a.5.5 0 0 1-.5.5z" class="colorf09696 svgShape"></path><path fill="#aad2ff" d="M27.5 31.5h4v6h-4z" class="coloraad2ff svgShape"></path><path fill="#bee6ff" d="M27.5 31.5h4V34h-4z" class="colorbee6ff svgShape"></path><path fill="#785ae6" d="M31.5 38a.5.5 0 0 1-.5-.5V32h-3v5.5a.5.5 0 0 1-1 0v-6a.5.5 0 0 1 .5-.5h4a.5.5 0 0 1 .5.5v6a.5.5 0 0 1-.5.5z" class="color785ae6 svgShape"></path><path fill="#ffe885" d="M36.5 44.5v-3l-5-4h-4l-5 4v3l1 1v12l-1 1v4h14v-4l-1-1v-12z" class="colorffe885 svgShape"></path><path fill="#f0dc78" d="M22.5 60.5h14v2h-14z" class="colorf0dc78 svgShape"></path><path fill="#785ae6" d="M36.5 63h-14a.5.5 0 0 1-.5-.5v-4c0-.133.053-.26.146-.354l.854-.853V45.707l-.854-.854A.5.5 0 0 1 22 44.5v-3c0-.152.069-.295.188-.391l5-4a.501.501 0 0 1 .625.781L23 41.74v2.553l.854.854A.5.5 0 0 1 24 45.5v12c0 .133-.053.26-.146.354l-.854.853V62h13v-3.293l-.854-.854A.5.5 0 0 1 35 57.5v-12c0-.133.053-.26.146-.354l.854-.853V41.74L31.325 38h-1.41a.5.5 0 0 1 0-1H31.5c.114 0 .224.039.312.109l5 4A.502.502 0 0 1 37 41.5v3c0 .133-.053.26-.146.354l-.854.853v11.586l.854.854A.5.5 0 0 1 37 58.5v4a.5.5 0 0 1-.5.5z" class="color785ae6 svgShape"></path><path fill="#f0f0e6" d="M25.5 46.5h8v10h-8z" class="colorf0f0e6 svgShape"></path><path fill="#785ae6" d="M25.5 49.085a.5.5 0 0 1-.5-.5V46.5a.5.5 0 0 1 .5-.5h1.656a.5.5 0 0 1 0 1H26v1.585a.5.5 0 0 1-.5.5zm0 5.721a.5.5 0 0 1-.5-.5v-1.992a.5.5 0 0 1 1 0v1.992a.5.5 0 0 1-.5.5zm8 2.194h-6.242a.5.5 0 0 1 0-1H33v-.368a.5.5 0 0 1 1 0v.868a.5.5 0 0 1-.5.5zm0-3.727a.5.5 0 0 1-.5-.5v-1.43a.5.5 0 0 1 1 0v1.43a.5.5 0 0 1-.5.5zm0-4.341a.5.5 0 0 1-.5-.5V47h-3.392a.5.5 0 0 1 0-1H33.5a.5.5 0 0 1 .5.5v1.932a.5.5 0 0 1-.5.5z" class="color785ae6 svgShape"></path><path fill="#ffe885" d="m29.5 49 .884 1.616L32 51.5l-1.616.884L29.5 54l-.884-1.616L27 51.5l1.616-.884z" class="colorffe885 svgShape"></path><path fill="#785ae6" d="M29.5 54.5a.498.498 0 0 1-.438-.26l-.814-1.487-1.487-.814a.5.5 0 0 1-.001-.877l1.487-.814.814-1.487c.175-.321.702-.321.877 0l.814 1.487 1.487.814a.498.498 0 0 1 0 .876l-1.487.814-.814 1.487a.497.497 0 0 1-.438.261zm-1.458-3 .814.445a.501.501 0 0 1 .199.199l.445.814.445-.814a.501.501 0 0 1 .199-.199l.814-.445-.814-.445a.501.501 0 0 1-.199-.199l-.445-.814-.445.814a.501.501 0 0 1-.199.199l-.814.445zm30.398-9.012a.5.5 0 0 1-.5-.5V38.5a1.5 1.5 0 0 0-1.498-1.5 1.5 1.5 0 0 0-1.498 1.5.5.5 0 0 1-1 0v-3a1.5 1.5 0 0 0-1.498-1.5 1.5 1.5 0 0 0-1.498 1.5.5.5 0 0 1-1 0v-2A1.5 1.5 0 0 0 48.45 32a1.5 1.5 0 0 0-1.498 1.5v2a.5.5 0 0 1-1 0 1.5 1.5 0 0 0-1.498-1.5 1.5 1.5 0 0 0-1.498 1.5.5.5 0 0 1-1 0c0-1.378 1.121-2.5 2.498-2.5.562 0 1.08.187 1.498.5 0-1.378 1.121-2.5 2.498-2.5a2.502 2.502 0 0 1 2.498 2.5c.417-.314.936-.5 1.498-.5a2.502 2.502 0 0 1 2.498 2.5v1c.417-.314.936-.5 1.498-.5a2.502 2.502 0 0 1 2.498 2.5v3.488a.5.5 0 0 1-.5.5zM56.442 63H45.454a.5.5 0 0 1-.5-.5v-4.821l-5.09-5.068a6.459 6.459 0 0 1-1.902-4.596V43.5c0-.827.672-1.5 1.499-1.5 1.039 0 1.973.456 2.614 1.178a.499.499 0 0 1 .883.322v2a.5.5 0 0 1-1 0c0-1.378-1.12-2.5-2.497-2.5a.5.5 0 0 0-.499.5v4.515c0 1.47.571 2.851 1.609 3.889l5.235 5.212a.5.5 0 0 1 .148.355V62h9.988v-4.529c0-.068.014-.135.041-.197l1.569-3.663a5.471 5.471 0 0 0 .388-2.032v-5.566a.5.5 0 0 1 1 0v5.566c0 .831-.156 1.643-.464 2.414l-1.534 3.58V62.5a.5.5 0 0 1-.5.5zM42.458 41.151a.5.5 0 0 1-.5-.5v-2.25a.5.5 0 0 1 1 0v2.25a.5.5 0 0 1-.5.5z" class="color785ae6 svgShape"></path></svg></g></svg>