<svg id="SvgjsSvg1140" width="256" height="256" xmlns="http://www.w3.org/2000/svg" version="1.1" xmlns:xlink="http://www.w3.org/1999/xlink" xmlns:svgjs="http://svgjs.com/svgjs"><defs id="SvgjsDefs1141"></defs><g id="SvgjsG1142"><svg xmlns="http://www.w3.org/2000/svg" viewBox="0 0 52 52" width="256" height="256"><path fill="#4c4d4d" d="M16.67 37.693h-2.513V14.598C14.157 7.652 19.808 2 26.755 2s12.6 5.652 12.6 12.598v8.123h-2.513v-8.123c0-5.56-4.525-10.086-10.087-10.086-5.561 0-10.086 4.525-10.086 10.086v23.095z" class="color4d4c4c svgShape"></path><path fill="#d7f0f9" d="M13.843 14.598h3.14v23.095h-3.14z" class="colord7ecf9 svgShape"></path><path fill="#e6f6fc" d="M13.843 14.598h1.57v23.095h-1.57z" class="colore6f5fc svgShape"></path><path fill="#4c4d4d" d="M13.277 38.277a8.726 8.726 0 0 1-2.522 5.828L8.57 46.31l3.125 3.098 2.185-2.203c2.39-2.41 3.71-5.61 3.79-8.927h-4.393z" class="color4d4c4c svgShape"></path><path fill="#2986a8" d="M47.1 32.688v9.818a.853.853 0 0 1-.853.854h-2.464V31.835h2.464c.47 0 .853.382.853.853z" class="colora82929 svgShape"></path><path fill="#369fc6" d="M45.441 28.45v16.8a2.546 2.546 0 0 1-2.546 2.546H28.422a2.546 2.546 0 0 1-2.546-2.546V21.39a4.862 4.862 0 0 1 4.862-4.861h2.782c6.584 0 11.921 5.337 11.921 11.92z" class="colorc63936 svgShape"></path><path fill="#40b6e2" d="M33.17 16.529h-2.432a4.862 4.862 0 0 0-4.862 4.862V45.25a2.546 2.546 0 0 0 2.546 2.546h4.747V16.529z" class="colore24740 svgShape"></path><circle cx="28.823" cy="45.291" r="4.709" fill="#333333" class="color333 svgShape"></circle><path fill="#4c4d4d" d="M30.418 49.71a4.377 4.377 0 0 1-1.598.286c-2.601 0-4.7-2.1-4.7-4.7 0-2.612 2.099-4.712 4.7-4.712.563 0 1.096.092 1.598.287a4.674 4.674 0 0 0-3.124 4.424c0 2.049 1.3 3.78 3.124 4.414z" class="color4d4c4c svgShape"></path><circle cx="28.823" cy="45.291" r="2.476" fill="#d7f0f9" class="colord7ecf9 svgShape"></circle><path fill="#77cded" d="M17.858 39.108h-4.89a.531.531 0 0 1-.531-.531v-1.609c0-.293.238-.53.53-.53h4.891c.294 0 .531.237.531.53v1.609a.531.531 0 0 1-.53.53z" class="color77c0ed svgShape"></path><path fill="#87ddfd" d="M15.413 39.108h-2.445a.531.531 0 0 1-.531-.531v-1.609c0-.293.238-.53.53-.53h2.446v2.67z" class="color9df svgShape"></path><path fill="#77cded" d="M16.085 46.307v2.37a.731.731 0 0 1-.731.73H5.64c-.462 0-.828-.43-.722-.88a3.81 3.81 0 0 1 1.016-1.82 3.766 3.766 0 0 1 2.7-1.131h6.719c.403 0 .73.327.73.731z" class="color77c0ed svgShape"></path><path fill="#87ddfd" d="M11.128 45.576H8.636c-1.056 0-2.01.427-2.701 1.13a3.81 3.81 0 0 0-1.016 1.822c-.106.45.26.88.722.88h5.487v-3.832z" class="color9df svgShape"></path></svg></g></svg>