<svg id="SvgjsSvg1279" width="256" height="256" xmlns="http://www.w3.org/2000/svg" version="1.1" xmlns:xlink="http://www.w3.org/1999/xlink" xmlns:svgjs="http://svgjs.com/svgjs"><defs id="SvgjsDefs1280"></defs><g id="SvgjsG1281"><svg xmlns="http://www.w3.org/2000/svg" data-name="Filled cutting cutting Ex" viewBox="0 0 512 512" width="256" height="256"><rect width="240" height="161.428" x="136" y="246.572" fill="#fa5d3f" class="colorfa5d3f svgShape"></rect><circle cx="112" cy="464" r="24" fill="#994635" class="color994635 svgShape"></circle><circle cx="400" cy="464" r="24" fill="#994635" class="color994635 svgShape"></circle><path fill="#fa5d3f" d="M24 408H488a0 0 0 0 1 0 0v12a20 20 0 0 1-20 20H44a20 20 0 0 1-20-20V408A0 0 0 0 1 24 408zM40 216H472a0 0 0 0 1 0 0v22a10 10 0 0 1-10 10H50a10 10 0 0 1-10-10V216A0 0 0 0 1 40 216z" class="colorfa5d3f svgShape"></path><path fill="#fac850" d="M72 248h64a0 0 0 0 1 0 0V408a0 0 0 0 1 0 0H102a30 30 0 0 1-30-30V248A0 0 0 0 1 72 248zM376 248h64a0 0 0 0 1 0 0V378a30 30 0 0 1-30 30H376a0 0 0 0 1 0 0V248A0 0 0 0 1 376 248z" class="colorfac850 svgShape"></path><path fill="#fff9f8" d="M156 288h80a20 20 0 0 1 20 20v20a0 0 0 0 1 0 0H136a0 0 0 0 1 0 0V308A20 20 0 0 1 156 288zM156 368h80a20 20 0 0 1 20 20v20a0 0 0 0 1 0 0H136a0 0 0 0 1 0 0V388A20 20 0 0 1 156 368zM276 288h80a20 20 0 0 1 20 20v20a0 0 0 0 1 0 0H256a0 0 0 0 1 0 0V308A20 20 0 0 1 276 288zM276 368h80a20 20 0 0 1 20 20v20a0 0 0 0 1 0 0H256a0 0 0 0 1 0 0V388A20 20 0 0 1 276 368z" class="colorfff9f8 svgShape"></path><path fill="#79d8eb" d="M312,216H232V98a10,10,0,0,1,10-10h60a10,10,0,0,1,10,10Z" class="color79d8eb svgShape"></path><rect width="32" height="48" x="256" y="40" fill="#fa5d3f" class="colorfa5d3f svgShape"></rect><rect width="80" height="48" x="232" y="128" fill="#fac850" class="colorfac850 svgShape"></rect><rect width="40" height="32" x="384" y="64" fill="#fa5d3f" class="colorfa5d3f svgShape"></rect><polygon fill="#79d8eb" points="384 96 352 176 352 216 448 216 448 176 424 96 384 96" class="color79d8eb svgShape"></polygon><polygon fill="#fac850" points="360 56 360 24 408 24 424 64 384 64 360 56" class="colorfac850 svgShape"></polygon><rect width="80" height="88" x="112" y="128" fill="#79d8eb" class="color79d8eb svgShape"></rect><ellipse cx="152" cy="132" fill="#e4f7fb" rx="40" ry="20" class="colore4f7fb svgShape"></ellipse><rect width="48" height="88" x="64" y="128" fill="#e4f7fb" class="colore4f7fb svgShape"></rect><rect width="32" height="40" x="72" y="288" fill="#fa5d3f" class="colorfa5d3f svgShape"></rect><g fill="#000000" class="color000 svgShape"><path d="M488,400H440.968A37.8,37.8,0,0,0,448,378V296H432v82a22.025,22.025,0,0,1-22,22H384V256h48v24h16V256h14a18.021,18.021,0,0,0,18-18V216a8,8,0,0,0-8-8H456V176a8.031,8.031,0,0,0-.337-2.3L432,94.826V63.851c0-.052,0-.1,0-.157l0-.064a7.951,7.951,0,0,0-.63-2.767L415.428,21.029A8,8,0,0,0,408,16H360a8,8,0,0,0-8,8v8H336V48h16v8a8,8,0,0,0,3.687,6.738L344.845,84.422l14.31,7.156L370.91,68.07l5.09,1.7V94.46l-31.428,78.569A8,8,0,0,0,344,176v32H320V98a18.021,18.021,0,0,0-18-18h-6V40a8,8,0,0,0-8-8H256a8,8,0,0,0-8,8V80h-6a18.021,18.021,0,0,0-18,18V208H200V128h-.443c-3.132-13.932-22.53-24-47.557-24-19.915,0-36.266,6.376-43.692,16H64a8,8,0,0,0-8,8v80H40a8,8,0,0,0-8,8v22a18.021,18.021,0,0,0,18,18H64V378a37.8,37.8,0,0,0,7.032,22H24a8,8,0,0,0-8,8v12a28.032,28.032,0,0,0,28,28H84.3a32,32,0,1,0,55.41,0H168V432H44a12.013,12.013,0,0,1-12-12v-4H480v4a12.013,12.013,0,0,1-12,12H184v16H372.3a32,32,0,1,0,55.41,0H468a28.032,28.032,0,0,0,28-28V408A8,8,0,0,0,488,400ZM128,464a16,16,0,1,1-16-16A16.019,16.019,0,0,1,128,464Zm28-104a27.836,27.836,0,0,0-12,2.7V336H248v26.7a27.836,27.836,0,0,0-12-2.7Zm92-104v26.7a27.836,27.836,0,0,0-12-2.7H156a27.836,27.836,0,0,0-12,2.7V256Zm120,64H264V308a12.013,12.013,0,0,1,12-12h80a12.013,12.013,0,0,1,12,12ZM144,308a12.013,12.013,0,0,1,12-12h80a12.013,12.013,0,0,1,12,12v12H144Zm120,28H368v26.7a27.836,27.836,0,0,0-12-2.7H276a27.836,27.836,0,0,0-12,2.7Zm104-53.3a27.836,27.836,0,0,0-12-2.7H276a27.836,27.836,0,0,0-12,2.7V256H368ZM392,72h24V88H392ZM368,32h34.583l9.6,24H385.3L368,50.234Zm-8,145.541L389.417,104h28.631L440,177.174V208H360ZM240,136h64v32H240Zm24-88h16V80H264ZM242,96h60a2,2,0,0,1,2,2v22H240V98A2,2,0,0,1,242,96Zm-2,88h64v24H240ZM120,153.218c8.371,4.262,19.481,6.782,32,6.782s23.629-2.52,32-6.782V208H120ZM152,120c19.851,0,32,7.77,32,12s-12.149,12-32,12-32-7.77-32-12S132.149,120,152,120ZM72,136h32v72H72ZM48,238V224H464v14a2,2,0,0,1-2,2H50A2,2,0,0,1,48,238Zm32,58H96v24H80Zm0,82V336h24a8,8,0,0,0,8-8V288a8,8,0,0,0-8-8H80V256h48V400H102A22.025,22.025,0,0,1,80,378Zm64,10a12.013,12.013,0,0,1,12-12h80a12.013,12.013,0,0,1,12,12v12H144Zm120,0a12.013,12.013,0,0,1,12-12h80a12.013,12.013,0,0,1,12,12v12H264Zm152,76a16,16,0,1,1-16-16A16.019,16.019,0,0,1,416,464Z" fill="#000000" class="color000 svgShape"></path><rect width="48" height="16" x="376" y="168" fill="#000000" class="color000 svgShape"></rect></g></svg></g></svg>