<svg id="SvgjsSvg1048" width="256" height="256" xmlns="http://www.w3.org/2000/svg" version="1.1" xmlns:xlink="http://www.w3.org/1999/xlink" xmlns:svgjs="http://svgjs.com/svgjs"><defs id="SvgjsDefs1049"></defs><g id="SvgjsG1050"><svg xmlns="http://www.w3.org/2000/svg" data-name="Layer 1" viewBox="0 0 128 128" width="256" height="256"><path fill="#1c2a35" d="M12 65a1 1 0 0 0-2 0v1a1 1 0 0 0 2 0zm0 17a1 1 0 0 0-2 0v2a1 1 0 0 0 2 0zm0-12a1 1 0 0 0-2 0v2a1 1 0 0 0 2 0zm0 18a1 1 0 0 0-2 0v2a1 1 0 0 0 2 0zm0-12a1 1 0 0 0-2 0v2a1 1 0 0 0 2 0zm-1 17a1 1 0 0 0-1 1v1a1 1 0 0 0 2 0v-1a1 1 0 0 0-1-1zm106-28a1 1 0 0 0-2 0v1a1 1 0 0 0 2 0zm0 11a1 1 0 0 0-2 0v2a1 1 0 0 0 2 0zm0-6a1 1 0 0 0-2 0v2a1 1 0 0 0 2 0zm0 18a1 1 0 0 0-2 0v2a1 1 0 0 0 2 0zm0-6a1 1 0 0 0-2 0v2a1 1 0 0 0 2 0zm-1 13a1 1 0 0 0 1-1v-1a1 1 0 0 0-2 0v1a1 1 0 0 0 1 1z" opacity=".3" class="color1c2a35 svgShape"></path><path fill="#fc785e" d="M99 64v18c0 2.21-1.29 4-3.5 4h-62c-2.21 0-4.5-1.79-4.5-4V64c0-2.21 2.29-4 4.5-4h13.61a4.84 4.84 0 0 0 4.92 4 4.734 4.734 0 0 0 4.62-3.17 6.816 6.816 0 0 0 .22-.83H95.5c2.21 0 3.5 1.79 3.5 4Z" class="colorfc785e svgShape"></path><path fill="#e1ebf4" d="m34 59.417 5.5-21.667s2.16-3.019 9.083-2.75 38.084 0 38.084 0 4-.667 4.833 6 2.667 17.833 2.667 17.833Z" class="colore1ebf4 svgShape"></path><path fill="#a54b3f" d="M77.736 73H51.264a1 1 0 0 0 0 2h26.472a1 1 0 0 0 0-2Z" opacity=".5" class="colora54b3f svgShape"></path><circle cx="89.5" cy="73" r="4" fill="#e1ebf4" class="colore1ebf4 svgShape"></circle><circle cx="39.5" cy="73" r="4" fill="#e1ebf4" class="colore1ebf4 svgShape"></circle><path fill="#fc785e" d="m36.23 47-.88 4H33v-4h3.23zM96 47v4h-1.78l-.7-4H96z" class="colorfc785e svgShape"></path><path fill="#e1ebf4" d="M26.56 126H2v-6.18l24-20.61V124a3.906 3.906 0 0 0 .56 2zm99.44-6.2v6.2h-23.56a3.906 3.906 0 0 0 .56-2V99.18z" class="colore1ebf4 svgShape"></path><rect width="29" height="30" x="72" y="96" fill="#d68751" rx="2" ry="2" class="colord68751 svgShape"></rect><rect width="29" height="30" x="28" y="96" fill="#d68751" rx="2" ry="2" class="colord68751 svgShape"></rect><path fill="#d68751" d="M91 88v.86A3.083 3.083 0 0 1 87.98 92h-3.96A3.083 3.083 0 0 1 81 88.86V88zm-44 0v.86c0 1.73-.85 3.14-2.52 3.14h-3.96C38.85 92 37 90.59 37 88.86V88z" class="colord68751 svgShape"></path><path fill="#94e1e4" d="M54.75 60.18A2.766 2.766 0 0 1 52.03 62a2.882 2.882 0 0 1-3.02-2.7c-.13-1.84.75-3.49 1.77-5.4.38-.71.77-1.43 1.11-2.19.35.68.74 1.35 1.12 2 1.34 2.29 2.5 4.27 1.74 6.47Z" class="color94e1e4 svgShape"></path><path fill="#94e1e4" d="M86.15 53H54.91a24.927 24.927 0 0 1-1.83-3.5 19.758 19.758 0 0 1-.9-2.8c-.1-.47-.22-.7-.34-.7s-.23.23-.35.69a27.063 27.063 0 0 1-1.16 3.57A26.624 26.624 0 0 1 48.99 53h-6.05l2.35-11.64a.597.597 0 0 1 .44-.36h38.19a.476.476 0 0 1 .34.29Z" class="color94e1e4 svgShape"></path><path fill="#2d4356" d="M96 20a6 6 0 1 0 6 6 6.005 6.005 0 0 0-6-6Zm0 10a4 4 0 1 1 4-4 3.999 3.999 0 0 1-4 4Z" class="color2d4356 svgShape"></path><circle cx="96" cy="26" r="4" fill="#f9bf64" class="colorf9bf64 svgShape"></circle><path fill="#2d4356" d="M28 25a6 6 0 1 0 6 6 6.005 6.005 0 0 0-6-6Zm0 10a4 4 0 1 1 4-4 3.999 3.999 0 0 1-4 4Z" class="color2d4356 svgShape"></path><circle cx="28" cy="31" r="4" fill="#f9bf64" class="colorf9bf64 svgShape"></circle><path fill="#2d4356" d="M30 11a5 5 0 1 0 5 5 5.002 5.002 0 0 0-5-5Zm0 8a3 3 0 1 1 3-3 2.996 2.996 0 0 1-3 3Z" class="color2d4356 svgShape"></path><circle cx="30" cy="16" r="3" fill="#f9bf64" class="colorf9bf64 svgShape"></circle><path fill="#2d4356" d="M16 21a4 4 0 1 0 4 4 3.999 3.999 0 0 0-4-4Zm0 6a2 2 0 1 1 2-2 2.006 2.006 0 0 1-2 2Z" class="color2d4356 svgShape"></path><circle cx="16" cy="25" r="2" fill="#f9bf64" class="colorf9bf64 svgShape"></circle><path fill="#2d4356" d="M16 9a3 3 0 1 0 3 3 3.009 3.009 0 0 0-3-3Zm0 4a1 1 0 1 1 1-1 1.003 1.003 0 0 1-1 1Z" class="color2d4356 svgShape"></path><circle cx="16" cy="12" r="1" fill="#f9bf64" class="colorf9bf64 svgShape"></circle><path fill="#2d4356" d="M114 12a3 3 0 1 0 3 3 3.009 3.009 0 0 0-3-3Zm0 4a1 1 0 1 1 1-1 1.003 1.003 0 0 1-1 1Z" class="color2d4356 svgShape"></path><circle cx="114" cy="15" r="1" fill="#f9bf64" class="colorf9bf64 svgShape"></circle><path fill="#2d4356" d="M39 20a4 4 0 1 0 4 4 3.999 3.999 0 0 0-4-4Zm0 6a2 2 0 1 1 2-2 2.006 2.006 0 0 1-2 2Z" class="color2d4356 svgShape"></path><circle cx="39" cy="24" r="2" fill="#f9bf64" class="colorf9bf64 svgShape"></circle><path fill="#2d4356" d="M111 23a4 4 0 1 0 4 4 3.999 3.999 0 0 0-4-4Zm0 6a2 2 0 1 1 2-2 2.006 2.006 0 0 1-2 2Z" class="color2d4356 svgShape"></path><circle cx="111" cy="27" r="2" fill="#f9bf64" class="colorf9bf64 svgShape"></circle><path fill="#2d4356" d="M104 34a5 5 0 1 0 5 5 5.002 5.002 0 0 0-5-5Zm0 8a3 3 0 1 1 3-3 2.996 2.996 0 0 1-3 3Z" class="color2d4356 svgShape"></path><circle cx="104" cy="39" r="3" fill="#f9bf64" class="colorf9bf64 svgShape"></circle><path fill="#2d4356" d="M16.95 40.74a.986.986 0 0 0-.8-.67l-2.24-.34-1-2.15a1.004 1.004 0 0 0-1.82 0l-1 2.15-2.24.34a.997.997 0 0 0-.57 1.68l1.65 1.69-.39 2.4a1.001 1.001 0 0 0 1.47 1.04l1.99-1.1 1.99 1.1a1.035 1.035 0 0 0 .48.12.995.995 0 0 0 .99-1.16l-.39-2.4 1.65-1.69a.99.99 0 0 0 .23-1.01Zm-3.67 1.67a.996.996 0 0 0-.27.86l.14.86-.67-.37a.951.951 0 0 0-.96 0l-.67.37.14-.86a.996.996 0 0 0-.27-.86l-.64-.66.84-.13a1.006 1.006 0 0 0 .75-.56l.33-.71.33.71a1.006 1.006 0 0 0 .75.56l.84.13Z" class="color2d4356 svgShape"></path><path fill="#f9bf64" d="M13.28 42.41a.996.996 0 0 0-.27.86l.14.86-.67-.37a.951.951 0 0 0-.96 0l-.67.37.14-.86a.996.996 0 0 0-.27-.86l-.64-.66.84-.13a1.006 1.006 0 0 0 .75-.56l.33-.71.33.71a1.006 1.006 0 0 0 .75.56l.84.13Z" class="colorf9bf64 svgShape"></path><path fill="#2d4356" d="M127.95 40.74a.986.986 0 0 0-.8-.67l-2.24-.34-1-2.15a1.004 1.004 0 0 0-1.82 0l-1 2.15-2.24.34a.997.997 0 0 0-.57 1.68l1.65 1.69-.39 2.4a1.001 1.001 0 0 0 1.47 1.04l1.99-1.1 1.99 1.1a1.035 1.035 0 0 0 .48.12.995.995 0 0 0 .99-1.16l-.39-2.4 1.65-1.69a.99.99 0 0 0 .23-1.01Zm-3.67 1.67a.996.996 0 0 0-.27.86l.14.86-.67-.37a.951.951 0 0 0-.96 0l-.67.37.14-.86a.996.996 0 0 0-.27-.86l-.64-.66.84-.13a1.006 1.006 0 0 0 .75-.56l.33-.71.33.71a1.006 1.006 0 0 0 .75.56l.84.13Z" class="color2d4356 svgShape"></path><path fill="#f9bf64" d="M124.28 42.41a.996.996 0 0 0-.27.86l.14.86-.67-.37a.951.951 0 0 0-.96 0l-.67.37.14-.86a.996.996 0 0 0-.27-.86l-.64-.66.84-.13a1.006 1.006 0 0 0 .75-.56l.33-.71.33.71a1.006 1.006 0 0 0 .75.56l.84.13Z" class="colorf9bf64 svgShape"></path><path fill="#2d4356" d="M104.95 8.74a.986.986 0 0 0-.8-.67l-2.24-.34-1-2.15a1.004 1.004 0 0 0-1.82 0l-1 2.15-2.24.34a.997.997 0 0 0-.57 1.68l1.65 1.69-.39 2.4a1.001 1.001 0 0 0 1.47 1.04l1.99-1.1 1.99 1.1a1.035 1.035 0 0 0 .48.12.995.995 0 0 0 .99-1.16l-.39-2.4 1.65-1.69a.99.99 0 0 0 .23-1.01Zm-3.67 1.67a.996.996 0 0 0-.27.86l.14.86-.67-.37a.951.951 0 0 0-.96 0l-.67.37.14-.86a.996.996 0 0 0-.27-.86l-.64-.66.84-.13a1.006 1.006 0 0 0 .75-.56l.33-.71.33.71a1.006 1.006 0 0 0 .75.56l.84.13Z" class="color2d4356 svgShape"></path><path fill="#f9bf64" d="M101.28 10.41a.996.996 0 0 0-.27.86l.14.86-.67-.37a.951.951 0 0 0-.96 0l-.67.37.14-.86a.996.996 0 0 0-.27-.86l-.64-.66.84-.13a1.006 1.006 0 0 0 .75-.56l.33-.71.33.71a1.006 1.006 0 0 0 .75.56l.84.13Z" class="colorf9bf64 svgShape"></path><path fill="#2d4356" d="M7.95 2.97a1.02 1.02 0 0 0-.8-.67l-1.54-.23-.7-1.49a1.004 1.004 0 0 0-1.82 0l-.7 1.49-1.54.23a1.02 1.02 0 0 0-.8.67 1.007 1.007 0 0 0 .23 1.02l1.15 1.18-.27 1.67a1.001 1.001 0 0 0 1.47 1.04L4 7.12l1.37.76a1.035 1.035 0 0 0 .48.12.996.996 0 0 0 .58-.18 1.009 1.009 0 0 0 .41-.98l-.27-1.67 1.15-1.18a1.007 1.007 0 0 0 .23-1.02ZM4.78 4.13a1.015 1.015 0 0 0-.27.86l.03.14-.06-.03a1.02 1.02 0 0 0-.96 0l-.06.03.03-.14a1.015 1.015 0 0 0-.27-.86l-.14-.14.14-.03a1.005 1.005 0 0 0 .76-.56L4 3.35l.02.05a1.005 1.005 0 0 0 .76.56l.14.03Z" class="color2d4356 svgShape"></path><path fill="#f9bf64" d="M4.78 4.13a1.015 1.015 0 0 0-.27.86l.03.14-.06-.03a1.02 1.02 0 0 0-.96 0l-.06.03.03-.14a1.015 1.015 0 0 0-.27-.86l-.14-.14.14-.03a1.005 1.005 0 0 0 .76-.56L4 3.35l.02.05a1.005 1.005 0 0 0 .76.56l.14.03Z" class="colorf9bf64 svgShape"></path><path fill="#2d4356" d="M127.95 2.97a1.02 1.02 0 0 0-.8-.67l-1.54-.23-.7-1.49a1.004 1.004 0 0 0-1.82 0l-.7 1.49-1.54.23a1.02 1.02 0 0 0-.8.67 1.007 1.007 0 0 0 .23 1.02l1.15 1.18-.27 1.67a1.001 1.001 0 0 0 1.47 1.04l1.37-.76 1.37.76a1.035 1.035 0 0 0 .48.12.996.996 0 0 0 .58-.18 1.009 1.009 0 0 0 .41-.98l-.27-1.67 1.15-1.18a1.007 1.007 0 0 0 .23-1.02Zm-3.17 1.16a1.015 1.015 0 0 0-.27.86l.03.14-.06-.03a1.02 1.02 0 0 0-.96 0l-.06.03.03-.14a1.015 1.015 0 0 0-.27-.86l-.14-.14.14-.03a1.005 1.005 0 0 0 .76-.56l.02-.05.02.05a1.005 1.005 0 0 0 .76.56l.14.03Z" class="color2d4356 svgShape"></path><path fill="#f9bf64" d="M124.78 4.13a1.015 1.015 0 0 0-.27.86l.03.14-.06-.03a1.02 1.02 0 0 0-.96 0l-.06.03.03-.14a1.015 1.015 0 0 0-.27-.86l-.14-.14.14-.03a1.005 1.005 0 0 0 .76-.56l.02-.05.02.05a1.005 1.005 0 0 0 .76.56l.14.03Z" class="colorf9bf64 svgShape"></path><path fill="#2d4356" d="M66.38 7.01a35.454 35.454 0 0 1-1.97-5.62C64.17.46 63.91 0 63.65 0s-.52.46-.77 1.38a52.241 52.241 0 0 1-2.55 7.14c-2.62 6-7.86 11.42-7.29 18.38.5 6 5.77 9.1 11.02 9.1 4.29 0 8.56-2.07 10.16-6.33 3.3-8.76-4.76-15.39-7.84-22.66Zm5.97 21.95c-1.4 3.72-5.2 5.04-8.29 5.04-4.06 0-8.61-2.27-9.02-7.26-.35-4.2 1.82-7.9 4.12-11.81a53.745 53.745 0 0 0 3-5.61c.56-1.26 1.05-2.5 1.48-3.72.29.75.59 1.46.89 2.19a45.226 45.226 0 0 0 3.81 6.68c3.07 4.77 5.97 9.28 4.01 14.49Z" class="color2d4356 svgShape"></path><path fill="#94e1e4" d="M72.35 28.96c-1.4 3.72-5.2 5.04-8.29 5.04-4.06 0-8.61-2.27-9.02-7.26-.35-4.2 1.82-7.9 4.12-11.81a53.745 53.745 0 0 0 3-5.61c.56-1.26 1.05-2.5 1.48-3.72.29.75.59 1.46.89 2.19a45.226 45.226 0 0 0 3.81 6.68c3.07 4.77 5.97 9.28 4.01 14.49Z" class="color94e1e4 svgShape"></path><path fill="#2d4356" d="M60.969 21.517a1 1 0 0 0-1.71-1.036c-1.205 1.982-2.519 6.478 1.128 9.309a1 1 0 0 0 1.226-1.58c-3.143-2.44-.748-6.52-.644-6.693Z" class="color2d4356 svgShape"></path><circle cx="62" cy="18" r="1" fill="#2d4356" class="color2d4356 svgShape"></circle><path fill="#2d4356" d="M12 64a1 1 0 0 0-2 0v1a1 1 0 0 0 2 0zm0 17a1 1 0 0 0-2 0v2a1 1 0 0 0 2 0zm0-12a1 1 0 0 0-2 0v2a1 1 0 0 0 2 0zm0 18a1 1 0 0 0-2 0v2a1 1 0 0 0 2 0zm0-12a1 1 0 0 0-2 0v2a1 1 0 0 0 2 0zm-1 17a1 1 0 0 0-1 1v1a1 1 0 0 0 2 0v-1a1 1 0 0 0-1-1zm106-28a1 1 0 0 0-2 0v1a1 1 0 0 0 2 0zm0 11a1 1 0 0 0-2 0v2a1 1 0 0 0 2 0zm0-6a1 1 0 0 0-2 0v2a1 1 0 0 0 2 0zm0 18a1 1 0 0 0-2 0v2a1 1 0 0 0 2 0zm0-6a1 1 0 0 0-2 0v2a1 1 0 0 0 2 0zm-1 13a1 1 0 0 0 1-1v-1a1 1 0 0 0-2 0v1a1 1 0 0 0 1 1z" class="color2d4356 svgShape"></path><path fill="#a54b3f" d="M96 49v2h-1.78l-.35-2H96z" opacity=".5" class="colora54b3f svgShape"></path><path fill="#ffffff" d="M90.26 40.05A5.312 5.312 0 0 0 86.24 38h-14.8a11.665 11.665 0 0 0 2.42-2h11.38c.15 0 .3.01.45.02a5.47 5.47 0 0 1 4.57 4.03zM56.58 38H44.07a5.691 5.691 0 0 0-4.31 2.2 5.781 5.781 0 0 1 4.84-4.18c.16-.01.31-.02.47-.02h9.01a12.008 12.008 0 0 0 2.5 2z" opacity=".5" class="colorfff svgShape"></path><path fill="#f5ffff" d="M87.045 53h-.333l-1.635-9.71a.49.49 0 0 0-.354-.29H44.95a.617.617 0 0 0-.459.36L42.462 53h-.417l2.447-11.64a.617.617 0 0 1 .459-.36h39.772a.49.49 0 0 1 .354.29Z" opacity=".3" class="colorf5ffff svgShape"></path><path fill="#f9dbd7" d="M47.11 60a4.826 4.826 0 0 0 .84 2H33.5c-2.21 0-4.5 1.79-4.5 4v-2c0-2.07 2.01-3.77 4.09-3.98.13-.01.27-.02.41-.02zM99 64v2c0-2.21-1.29-4-3.5-4H56.05a4.305 4.305 0 0 0 .6-1.17 6.816 6.816 0 0 0 .22-.83H95.5a3.152 3.152 0 0 1 .44.03C97.88 60.25 99 61.94 99 64z" opacity=".3" class="colorf9dbd7 svgShape"></path><path fill="#ffffff" d="M126 119.8v2l-23-20.62v-2l23 20.62z" opacity=".5" class="colorfff svgShape"></path><path fill="#e5d0c3" d="M57 98v2a2.006 2.006 0 0 0-2-2H30a2.006 2.006 0 0 0-2 2v-2a2.005 2.005 0 0 1 1.8-1.99A1.274 1.274 0 0 1 30 96h25a1.274 1.274 0 0 1 .2.01A2.005 2.005 0 0 1 57 98zm44 0v2a2.006 2.006 0 0 0-2-2H74a2.006 2.006 0 0 0-2 2v-2a2.005 2.005 0 0 1 1.8-1.99A1.274 1.274 0 0 1 74 96h25a2.122 2.122 0 0 1 .26.02A2.005 2.005 0 0 1 101 98z" opacity=".3" class="colore5d0c3 svgShape"></path><path fill="#a54b3f" d="M33 49h2.79l-.44 2H33v-2z" opacity=".5" class="colora54b3f svgShape"></path><path fill="#426666" d="M43.34 51h6.67c-.31.67-.66 1.33-1.02 2h-6.05zm42.81 2H54.91c-.39-.67-.78-1.33-1.14-2h32.06zm-31.4 7.18a2.695 2.695 0 0 1-2.48 1.81 1.925 1.925 0 0 1-.24.01 1.476 1.476 0 0 1-.21-.01 1.354 1.354 0 0 1-.2-.02 2.803 2.803 0 0 1-2.61-2.67 5.105 5.105 0 0 1 .1-1.41A2.901 2.901 0 0 0 52.03 60a2.766 2.766 0 0 0 2.72-1.82 3.818 3.818 0 0 0 .13-.45 4.473 4.473 0 0 1-.13 2.45z" opacity=".3" class="color426666 svgShape"></path><path fill="#a54b3f" d="M99 80v2c0 2.07-1.13 3.77-3.09 3.98-.13.01-.27.02-.41.02h-62a2.744 2.744 0 0 1-.41-.02C31.01 85.77 29 84.07 29 82v-2c0 2.21 2.29 4 4.5 4h62c2.21 0 3.5-1.79 3.5-4Z" opacity=".5" class="colora54b3f svgShape"></path><path fill="#72492d" d="M47 88v.86c0 1.62-.75 2.96-2.22 3.12a1.513 1.513 0 0 1-.3.02h-3.96a1.719 1.719 0 0 1-.32-.02 3.51 3.51 0 0 1-3.2-3.12V88h.27a3.816 3.816 0 0 0 3.25 2h3.96a2.397 2.397 0 0 0 2.38-2zm44 0v.86a3.098 3.098 0 0 1-2.71 3.12 1.563 1.563 0 0 1-.31.02h-3.96a1.614 1.614 0 0 1-.31-.02A3.098 3.098 0 0 1 81 88.86V88h.21a3.023 3.023 0 0 0 2.81 2h3.96a3.023 3.023 0 0 0 2.81-2z" opacity=".4" class="color72492d svgShape"></path><path fill="#9fa5aa" d="M126 124v2h-23.56a3.906 3.906 0 0 0 .56-2zm-99.44 2H2v-2h24a3.906 3.906 0 0 0 .56 2z" opacity=".5" class="color9fa5aa svgShape"></path><path fill="#ffffff" d="M26 99.21v2L2 121.82v-2l24-20.61z" opacity=".5" class="colorfff svgShape"></path><path fill="#72492d" d="M101 122v2a2.006 2.006 0 0 1-2 2H74a1.34 1.34 0 0 1-.2-.01A2.006 2.006 0 0 1 72 124v-2a2.006 2.006 0 0 0 2 2h25a2.006 2.006 0 0 0 2-2zm-44 0v2a2.006 2.006 0 0 1-1.8 1.99 1.34 1.34 0 0 1-.2.01H30a2.006 2.006 0 0 1-2-2v-2a2.006 2.006 0 0 0 2 2h25a2.006 2.006 0 0 0 2-2z" opacity=".4" class="color72492d svgShape"></path><path fill="#9fa5aa" d="M93.5 73a4.002 4.002 0 0 1-3.59 3.98 4.208 4.208 0 0 1-.82 0A4.002 4.002 0 0 1 85.5 73a3.656 3.656 0 0 1 .13-1 3.996 3.996 0 0 0 7.74 0 3.656 3.656 0 0 1 .13 1zm-50 0a4.002 4.002 0 0 1-3.59 3.98 4.208 4.208 0 0 1-.82 0A4.002 4.002 0 0 1 35.5 73a3.656 3.656 0 0 1 .13-1 3.996 3.996 0 0 0 7.74 0 3.656 3.656 0 0 1 .13 1z" opacity=".5" class="color9fa5aa svgShape"></path><path fill="#2d4356" d="M89.5 67a6 6 0 1 0 6 6 6.005 6.005 0 0 0-6-6zm0 10a4 4 0 1 1 4-4 3.999 3.999 0 0 1-4 4zm-50-10a6 6 0 1 0 6 6 6.005 6.005 0 0 0-6-6zm0 10a4 4 0 1 1 4-4 3.999 3.999 0 0 1-4 4z" class="color2d4356 svgShape"></path><path fill="#2d4356" d="m127.67 118.61-25.24-22.63A3.992 3.992 0 0 0 99 94H87.98A5.075 5.075 0 0 0 93 88.86V88h2.5a5.5 5.5 0 0 0 5.5-5.5V63.55A5.55 5.55 0 0 0 95.45 58l-.88-5h2.93a.5.5 0 0 0 .5-.5V46a1.003 1.003 0 0 0-1-1h-3.83l-.89-5.09A7.421 7.421 0 0 0 85.247 34H73.86a11.665 11.665 0 0 1-2.42 2h13.8a5.42 5.42 0 0 1 5.07 4.26L93.42 58H56.95a9.543 9.543 0 0 0-.95-3h30.5a1.648 1.648 0 0 0 1.68-1.97l-1.95-12.06A2.423 2.423 0 0 0 83.92 39H45.73a2.559 2.559 0 0 0-2.4 1.96L40.9 53.04A1.57 1.57 0 0 0 42.5 55h5.48a10.538 10.538 0 0 0-.92 3h-11.2l3.88-17.71A5.722 5.722 0 0 1 45.072 36H56.58a12.008 12.008 0 0 1-2.5-2h-9.01a7.82 7.82 0 0 0-7.28 5.86L36.66 45H32a1.003 1.003 0 0 0-1 1v6a1.003 1.003 0 0 0 1 1h2.91l-1.1 5h-.31a6.52 6.52 0 0 0-6.5 6.5v17a6.52 6.52 0 0 0 6.5 6.5H35v.86C35 91.7 37.75 94 40.52 94H30a4.025 4.025 0 0 0-3.56 2.21.22.22 0 0 1-.05.03L.35 118.6a1.011 1.011 0 0 0-.35.76V127a1.003 1.003 0 0 0 1 1h54a4.012 4.012 0 0 0 4-4V98a4.012 4.012 0 0 0-4-4H44.48c2.78 0 4.52-2.3 4.52-5.14V88h30v.86A5.082 5.082 0 0 0 84.02 94H74a4.012 4.012 0 0 0-4 4v26a4.012 4.012 0 0 0 4 4h53a1.003 1.003 0 0 0 1-1v-7.64a1.006 1.006 0 0 0-.33-.75ZM2 126v-6.18l24-20.61V124a3.906 3.906 0 0 0 .56 2Zm94-79v4h-1.78l-.7-4Zm-53.06 6 2.35-11.64a.597.597 0 0 1 .44-.36h38.19a.476.476 0 0 1 .34.29L86.15 53H54.91a24.927 24.927 0 0 1-1.83-3.5 19.758 19.758 0 0 1-.9-2.8c-.1-.47-.22-.7-.34-.7s-.23.23-.35.69a27.063 27.063 0 0 1-1.16 3.57A26.624 26.624 0 0 1 48.99 53Zm11.81 7.18A2.766 2.766 0 0 1 52.03 62a2.882 2.882 0 0 1-3.02-2.7c-.13-1.84.75-3.49 1.77-5.4.38-.71.77-1.43 1.11-2.19.35.68.74 1.35 1.12 2 1.34 2.29 2.5 4.27 1.74 6.47ZM33 51v-4h3.23l-.88 4Zm22 45a2.006 2.006 0 0 1 2 2v26a2.006 2.006 0 0 1-2 2H30a2.006 2.006 0 0 1-2-2V98a2.006 2.006 0 0 1 2-2Zm-8-7.14c0 1.73-.85 3.14-2.52 3.14h-3.96C38.85 92 37 90.59 37 88.86V88h10ZM33.5 86c-2.21 0-4.5-1.79-4.5-4V64c0-2.21 2.29-4 4.5-4h13.61a4.84 4.84 0 0 0 4.92 4 4.734 4.734 0 0 0 4.62-3.17 6.816 6.816 0 0 0 .22-.83H95.5c2.21 0 3.5 1.79 3.5 4v18c0 2.21-1.29 4-3.5 4ZM81 88.86V88h10v.86A3.083 3.083 0 0 1 87.98 92h-3.96A3.083 3.083 0 0 1 81 88.86ZM101 124a2.006 2.006 0 0 1-2 2H74a2.006 2.006 0 0 1-2-2V98a2.006 2.006 0 0 1 2-2h25a2.006 2.006 0 0 1 2 2Zm25 2h-23.56a3.906 3.906 0 0 0 .56-2V99.18l23 20.62Z" class="color2d4356 svgShape"></path><path fill="#2d4356" d="M77.736 72H51.264a1 1 0 0 0 0 2h26.472a1 1 0 0 0 0-2Z" class="color2d4356 svgShape"></path><path fill="#426666" d="M72.356 28.96c-1.23 3.26-4.29 4.67-7.11 4.98-.4.04-.8.06-1.18.06-.26 0-.53-.01-.79-.03-3.84-.27-7.85-2.56-8.23-7.23a11.06 11.06 0 0 1 .01-1.91c.46 4.93 4.97 7.17 9.01 7.17 3.09 0 6.89-1.32 8.29-5.04a9.705 9.705 0 0 0 .58-2.44 9.524 9.524 0 0 1-.58 4.44Z" opacity=".3" class="color426666 svgShape"></path><path fill="#846134" d="M32 31a4.002 4.002 0 0 1-3.59 3.98 4.208 4.208 0 0 1-.82 0A4.002 4.002 0 0 1 24 31a3.658 3.658 0 0 1 .13-1 3.996 3.996 0 0 0 7.74 0 3.656 3.656 0 0 1 .13 1zm1-15a2.988 2.988 0 0 1-2.69 2.98 2.41 2.41 0 0 1-.62 0A2.988 2.988 0 0 1 27 16a2.772 2.772 0 0 1 .18-1 2.988 2.988 0 0 0 5.64 0 2.772 2.772 0 0 1 .18 1zm-15 9a2.006 2.006 0 0 1-1.8 1.99 2.003 2.003 0 0 1-.4 0A1.997 1.997 0 0 1 14.27 24a1.996 1.996 0 0 0 3.46 0 1.995 1.995 0 0 1 .27 1zm23-1a2.006 2.006 0 0 1-1.8 1.99 2.003 2.003 0 0 1-.4 0A1.997 1.997 0 0 1 37.27 23a1.996 1.996 0 0 0 3.46 0 1.994 1.994 0 0 1 .27 1zM17 12a1 1 0 0 1-2 0 .966.966 0 0 1 .14-.5.99.99 0 0 0 1.72 0 .966.966 0 0 1 .14.5zm75 14a4.002 4.002 0 0 0 3.59 3.98 4.208 4.208 0 0 0 .82 0A4.002 4.002 0 0 0 100 26a3.658 3.658 0 0 0-.13-1 3.996 3.996 0 0 1-7.74 0 3.656 3.656 0 0 0-.13 1zm9 13a2.988 2.988 0 0 0 2.69 2.98 2.41 2.41 0 0 0 .62 0A2.988 2.988 0 0 0 107 39a2.772 2.772 0 0 0-.18-1 2.988 2.988 0 0 1-5.64 0 2.772 2.772 0 0 0-.18 1zm8-12a2.006 2.006 0 0 0 1.8 1.99 2.003 2.003 0 0 0 .4 0 1.997 1.997 0 0 0 1.53-2.99 1.996 1.996 0 0 1-3.46 0 1.995 1.995 0 0 0-.27 1zm4-12a1 1 0 0 0 2 0 .966.966 0 0 0-.14-.5.99.99 0 0 1-1.72 0 .966.966 0 0 0-.14.5z" opacity=".3" class="color846134 svgShape"></path></svg></g></svg>