<svg xmlns="http://www.w3.org/2000/svg" viewBox="0 0 50 50" width="256" height="256"><path d="M39.3 33.5c2.3 0 4.2-1.9 4.2-4.2 0-2.3-1.9-4.2-4.2-4.2-2.3 0-4.2 1.9-4.2 4.2 0 2.3 1.9 4.2 4.2 4.2zm-27.3 0c2.3 0 4.2-1.9 4.2-4.2 0-2.3-1.9-4.2-4.2-4.2-2.3 0-4.2 1.9-4.2 4.2 0 2.3 1.9 4.2 4.2 4.2z" fill="#209fdc" class="color000 svgShape"></path><path d="m47.6 26.3-.7-2.4c-.2-.8-.8-1.4-1.5-1.7-2.6-1-6.7-1.4-10.6-1.6-.2 0-.5-.1-.7-.2-5.1-2.7-4.8-2.6-5.2-2.7-9-2.7-12.8-.3-18.3 1.8-1.4.5-2.7.5-4.1.2-.9-.2-1.9.3-2.2 1.2-.9 2.4-1.9 3-1.9 4.4v1.5c0 1.8 1.7 2.1 3.6 3.2 0-.3-.1-.5-.1-.8 0-3.4 2.8-6.2 6.2-6.2 3.4 0 6.2 2.8 6.2 6.2 0 .5-.1 1-.2 1.4h15.2c-.1-.5-.2-.9-.2-1.4 0-3.4 2.8-6.2 6.2-6.2 3.4 0 6.2 2.8 6.2 6.2 0 .3 0 .6-.1 1 .9-.4 1.6-1.2 2.1-2.3.2-.5.3-1.1.1-1.6zm-30.4-4.7c-.3 0-.5-.1-.7-.3l-1.2-1.6c2-.8 3.7-1.2 6.3-1.1l.1 3h-4.5zm11.2 0h-4.7l-.1-2.9c1.5.2 3.1.5 4.7.9.1 0 .2.1 2.7 1.4l-2.6.6z" fill="#209fdc" class="color000 svgShape"></path></svg>