<svg id="SvgjsSvg1242" width="256" height="256" xmlns="http://www.w3.org/2000/svg" version="1.1" xmlns:xlink="http://www.w3.org/1999/xlink" xmlns:svgjs="http://svgjs.com/svgjs"><defs id="SvgjsDefs1243"></defs><g id="SvgjsG1244"><svg xmlns="http://www.w3.org/2000/svg" viewBox="0 0 512 512" width="256" height="256"><path fill="#209fdc" d="M389.22 323.58a15.42 15.42 0 0 0 16.33 26.15c16.89-11.55 1.45-36.27-16.33-26.15zm16.56 15c-1.6 7.39-11.78 9.08-15.7 2.62a8.65 8.65 0 0 1 2.74-11.87c6.34-4.09 14.78 1.94 12.96 9.26zm-267.02-15a15.42 15.42 0 0 0 16.33 26.15c16.91-11.55 1.46-36.27-16.33-26.15zM151.49 344a8.63 8.63 0 0 1-11.87-2.75c-5.71-9.84 8.2-18.6 14.61-9.12a8.62 8.62 0 0 1-2.74 11.87zm251.22-83.78L391.46 259a3.4 3.4 0 1 0-.75 6.76L402 267h.38a3.4 3.4 0 0 0 .33-6.78z" class="color404040 svgShape"></path><path fill="#209fdc" d="M354.25 156.29a3.4 3.4 0 0 0-3.4-3.4H48.15a3.4 3.4 0 0 0-3.4 3.4v95.55a3.39 3.39 0 0 0-2.75 3.33V269a3.39 3.39 0 0 0 2.78 3.33V300a3.4 3.4 0 0 0 3.4 3.4h30.34v8.81l-14.88 6.29v-3.4a3.4 3.4 0 0 0-6.8 0v15.34a3.4 3.4 0 1 0 6.8 0v-4.55l19-8h26.21a55.32 55.32 0 0 0-1.72 14.36 3.4 3.4 0 0 0 3.4 3.4h6.36C116 352.21 130.29 367 147 366.74c16.8.28 30.9-14.87 30-31.16h74.18v1.65a3.4 3.4 0 0 0 3.4 3.4h76.51a3.41 3.41 0 0 0 3.41-3.4v-1.65h32.85c-.93 16.8 13.75 31.51 30.11 31.14 16.57.28 30.88-14.46 30-31.14h33a7.81 7.81 0 0 0 5.8-2.74c6.12-6.63 8.27-25.87 6-54.19-2.27-28.73-26.54-76.19-49.95-76.19h-54.73a9.32 9.32 0 0 0-8.27 5h-5.07Zm4 172.49h-11.09v-25.43h3.69a3.4 3.4 0 0 0 3.4-3.4v-2.27h4ZM347.45 280a3.42 3.42 0 0 0-3.58 3.4v6.43a3.1 3.1 0 0 1-3.1 3.1h-6.42a3.41 3.41 0 0 0-3.4 3.58H166.58c-10.36-4.39-29-4.39-39.31 0H68.05a3.41 3.41 0 0 0-3.4-3.58h-6.43a3.09 3.09 0 0 1-3.09-3.1v-6.43a3.43 3.43 0 0 0-3.58-3.4V176.19a3.41 3.41 0 0 0 3.58-3.4v-6.43a3.09 3.09 0 0 1 3.09-3.09h6.43a3.41 3.41 0 0 0 3.4-3.58H331a3.41 3.41 0 0 0 3.4 3.58h6.42a3.1 3.1 0 0 1 3.1 3.09v6.43a3.41 3.41 0 0 0 3.58 3.4ZM185 317.82h38.18v11h-36.52a52.47 52.47 0 0 0-1.66-11Zm-2.54-6.8a29.15 29.15 0 0 0-5.44-7.67h20.73V311Zm-97.17 0v-7.67h31.51a29.15 29.15 0 0 0-5.44 7.67Zm73.94 45.38c-17.44 10.94-39.73-5-35-25a23.41 23.41 0 0 1 22.64-18.05c23.34.15 32.13 30.51 12.39 43.05Zm13.18-35.68c-13.85-22.19-47.71-17.17-54.54 8.06H114c1.06-19.58 11.6-28.72 32.93-28.72 18.77-.28 32.12 7.75 32.93 28.72H176a29.87 29.87 0 0 0-3.56-8.06Zm57.59 8.06v-11h21.14v11Zm97.65 5.05H258v-21.21h69.71Zm3.4-28h-76.5a3.4 3.4 0 0 0-3.4 3.4V311h-46.57v-7.67h135.78v25.43h-5.89v-19.54a3.41 3.41 0 0 0-3.41-3.4Zm89 36.07c-4.54 20.1-31.55 24.57-42.41 7.1s5-39.73 25-35c12.24 2.54 20.5 15.76 17.43 27.89Zm2.83-21.17c-13.86-22.19-47.71-17.17-54.54 8.06h-1.72c.94-18.24 9.88-25.43 30.94-25.43s30 7.19 30.95 25.43h-2.1a30.51 30.51 0 0 0-3.51-8.07Zm27.3-11.2v6h-14.76v-6Zm-14.76 12.77h14.78v6.48h-14.78Zm25 6.48H457v-22.66a3.41 3.41 0 0 0-3.41-3.4H435c-3.75-14-30.85-16.47-48.21-16.57-1.74-3.57-2.7-16.79-3-33l39.69 5.06 7 12.45a3.41 3.41 0 0 0 3 1.74h19.21l.74 4a3.34 3.34 0 0 0-.89 2.27v16.45c-.22 5.59 6.61 9.92 13.65 11.72-.89 12.38-2.56 19.9-5.76 21.94ZM384 220.9h35.63a106.71 106.71 0 0 1 2.8 30.35l-38.74-4.94c-.05-8.24.06-16.97.31-25.41Zm81.05 54.36h-5s-1.4-7.74-1.42-7.36a13 13 0 0 0 3.76-4.71 88.6 88.6 0 0 1 2.66 12.07Zm-5.79 6.8h6.44c.46 6.68.64 12.58.61 17.74-3.65-1.21-7.05-3.19-7.05-4.69Zm-2.44-29.67v5.37a6.09 6.09 0 0 1-6.43 6.05v-17.48a6.09 6.09 0 0 1 6.43 6.06Zm-13.23 13.23h-8.2l-6.34-11.33a113 113 0 0 0-1.82-30.43c3.14 2.68 7.51 7.51 12.43 15.84 1.37 2.32 2.69 4.77 3.93 7.27Zm-76-56.36h54.73c9.91 0 21.78 13.63 30.59 30.46a37.77 37.77 0 0 0-5.54-.19c-7.92-15.41-20-26.13-25.07-25.44h-41.59a3.39 3.39 0 0 0-3.39 3.28c0 .16-.58 16.55-.38 33.51.41 35.51 3.67 38.89 5.23 40.51a4.77 4.77 0 0 0 3.49 1.55c27 .4 43.82 4.52 43 14.68-6-7.55-16.2-11.08-31-11.08-16.1 0-26.71 4.17-32.49 13.12v-97.9a2.51 2.51 0 0 1 2.42-2.5Zm-9.3 5v76.58h-4V214.3Z" class="color404040 svgShape"></path></svg></g></svg>