<svg id="SvgjsSvg1236" width="256" height="256" xmlns="http://www.w3.org/2000/svg" version="1.1" xmlns:xlink="http://www.w3.org/1999/xlink" xmlns:svgjs="http://svgjs.com/svgjs"><defs id="SvgjsDefs1237"></defs><g id="SvgjsG1238"><svg xmlns="http://www.w3.org/2000/svg" viewBox="0 0 50 50" width="256" height="256"><path d="M48 23.9c-.6-1-1.6-1.8-2.7-2.1-1.4-.4-2.9-.7-4.7-.9-3.6-.4-5.2-5.5-13.7-5.5-.7 0-1.3.3-1.7.7-.5.5-.7 1.1-.7 1.8l.2 10.8h-.6V17.5c0-.6-.4-1-1-1s-1 .4-1 1v3.8H3c-1.1 0-2 .9-2 2v6.3c0 .6.4 1 1 1h6.3c.2 2.2 2 3.9 4.2 3.9s4-1.7 4.2-3.9h20.9c.2 2.2 2 3.9 4.2 3.9s4-1.7 4.2-3.9c3.4.1 3.7-3.9 2-6.7zm-35.5 8.7c-1.2 0-2.2-1-2.2-2.2 0-1.2 1-2.2 2.2-2.2 1.2 0 2.2 1 2.2 2.2.1 1.2-.9 2.2-2.2 2.2zm3.9-3.9c-.6-1.5-2.1-2.6-3.9-2.6-1.7 0-3.2 1.1-3.9 2.6H3v-5.4h19v5.4h-5.6zm20.8-7-.1.2c-.2.3-.6.5-.9.4l-2.1-.3-.9-2.1c-.2-.5-.8-.8-1.3-.5-.5.2-.8.8-.5 1.3l.4 1.1-1.8-.2-.6-3.9c4.4.6 6.7 3.2 7.8 4zm4.6 10.9c-1.2 0-2.2-1-2.2-2.2 0-1.2 1-2.2 2.2-2.2 1.2 0 2.2 1 2.2 2.2 0 1.2-1 2.2-2.2 2.2zM47 28c0 .4-.5.8-.9.8h-.3c-.6-1.5-2.1-2.6-3.9-2.6-1.7 0-3.2 1.1-3.9 2.6H26.7l-.2-10.9c0-.2.1-.3.1-.3.1-.1.2-.1.3-.1h.4l.8 5.2c.1.4.4.8.9.8l6.9.8h.4c1 0 1.9-.5 2.5-1.3l.3-.4c1.6.5 2.9.3 5.7 1.1.6.2 1.1.5 1.4 1l-.9-.2c-.5-.1-1.1.2-1.2.8-.1.5.2 1.1.8 1.2l2.1.4V28z" fill="#209fdc" class="color000 svgShape"></path><path d="M30.8 24h-.7c-.6 0-1 .4-1 1s.4 1 1 1h.7c.6 0 1-.4 1-1s-.4-1-1-1z" fill="#209fdc" class="color000 svgShape"></path></svg></g></svg>