<svg id="SvgjsSvg1219" width="256" height="256" xmlns="http://www.w3.org/2000/svg" version="1.1" xmlns:xlink="http://www.w3.org/1999/xlink" xmlns:svgjs="http://svgjs.com/svgjs"><defs id="SvgjsDefs1220"></defs><g id="SvgjsG1221"><svg xmlns="http://www.w3.org/2000/svg" enable-background="new 0 0 512 512" viewBox="0 0 512 512" width="256" height="256"><path fill="#209fdc" d="M92.3,397.5c-29.2,0-52.9-23.8-52.9-52.9s23.8-52.9,52.9-52.9s52.9,23.8,52.9,52.9
				S121.4,397.5,92.3,397.5z M92.3,301.6c-23.7,0-42.9,19.3-42.9,42.9s19.3,42.9,42.9,42.9s42.9-19.3,42.9-42.9
				S115.9,301.6,92.3,301.6z" class="color0d0d0d svgShape"></path><path fill="#209fdc" d="M92.3 372.3c-15.3 0-27.8-12.4-27.8-27.8s12.4-27.8 27.8-27.8 27.8 12.4 27.8 27.8S107.6 372.3 92.3 372.3zM92.3 326.8c-9.8 0-17.8 8-17.8 17.8s8 17.8 17.8 17.8 17.8-8 17.8-17.8S102 326.8 92.3 326.8zM432.3 372.3c-15.3 0-27.8-12.4-27.8-27.8s12.4-27.8 27.8-27.8 27.8 12.4 27.8 27.8S447.6 372.3 432.3 372.3zM432.3 326.8c-9.8 0-17.8 8-17.8 17.8s8 17.8 17.8 17.8 17.8-8 17.8-17.8S442 326.8 432.3 326.8z" class="color0d0d0d svgShape"></path><path fill="#209fdc" d="M432.3 397.5c-29.2 0-52.9-23.8-52.9-52.9s23.8-52.9 52.9-52.9 52.9 23.8 52.9 52.9S461.4 397.5 432.3 397.5zM432.3 301.6c-23.7 0-42.9 19.3-42.9 42.9s19.3 42.9 42.9 42.9 42.9-19.3 42.9-42.9S455.9 301.6 432.3 301.6zM349.5 219.6c-.1 0-.2 0-.3 0l-19.5-1.1.6-10 7 .4-34.9-37.3c-5.4-5.8-13.1-9.1-21-9.1h-196L65 193.6l245.3 13.8-.6 10-254-14.3c-1.8-.1-3.4-1.1-4.2-2.7-.8-1.6-.7-3.5.3-5l26.6-40.6c.9-1.4 2.5-2.3 4.2-2.3h198.7c10.7 0 21 4.5 28.3 12.3l43.5 46.4c1.4 1.5 1.7 3.7.9 5.5C353.2 218.5 351.4 219.6 349.5 219.6z" class="color0d0d0d svgShape"></path><rect width="32" height="10" x="128" y="235" fill="#209fdc" class="color0d0d0d svgShape"></rect><rect width="32" height="10" x="241" y="235" fill="#209fdc" class="color0d0d0d svgShape"></rect><path fill="#209fdc" d="M261 138.5h-10c0-7.7-6.3-14-14-14H122c-7.7 0-14 6.3-14 14H98c0-13.2 10.8-24 24-24h115C250.2 114.5 261 125.3 261 138.5zM228 212.8c-.1 0-.2 0-.3 0l-13-.7c-2.6-.1-4.7-2.3-4.7-5v-49.5c0-2.8 2.2-4.5 5-4.5h13c2.8 0 5 1.8 5 4.5v50.2c0 1.4-.6 2.7-1.6 3.6C230.5 212.3 229.3 212.8 228 212.8zM220 202.3l3 .2V163h-3V202.3zM121 206.8c-.1 0-.2 0-.3 0l-13-.7c-2.6-.1-4.7-2.3-4.7-5v-43.5c0-2.8 2.2-4.5 5-4.5h13c2.8 0 5 1.8 5 4.5v44.2c0 1.4-.6 2.7-1.6 3.6C123.5 206.3 122.3 206.8 121 206.8zM113 196.3l3 .2V163h-3V196.3zM28.5 254.8h-8c-2.8 0-5-2.2-5-5v-24c0-2.8 2.2-5 5-5h8c9.4 0 17 7.6 17 17C45.5 247.1 37.9 254.8 28.5 254.8zM25.5 244.8h3c3.9 0 7-3.2 7-7 0-3.9-3.2-7-7-7h-3V244.8zM30.5 349.5H11.1c-2.5 0-4.6-1.8-5-4.3l-6.1-43c-.2-1.4.2-2.9 1.2-4 1-1.1 2.3-1.7 3.8-1.7h25.5c2.8 0 5 2.2 5 5v43C35.5 347.3 33.3 349.5 30.5 349.5zM15.4 339.5h10.1v-33H10.8L15.4 339.5zM507 279.9h-35.3c-12 0-21.7-9.7-21.7-21.7 0-2.8 2.2-5 5-5h52c2.8 0 5 2.2 5 5v16.7C512 277.6 509.8 279.9 507 279.9zM461.1 263.2c1.9 4 5.9 6.7 10.6 6.7H502v-6.7H461.1z" class="color0d0d0d svgShape"></path><rect width="254.3" height="10" x="135.1" y="318" fill="#209fdc" class="color0d0d0d svgShape"></rect><rect width="31.9" height="10" x="475.1" y="318" fill="#209fdc" class="color0d0d0d svgShape"></rect><rect width="18.9" height="10" x="30.5" y="318" fill="#209fdc" class="color0d0d0d svgShape"></rect><path fill="#209fdc" d="M495.5 312.6H481c-2.8 0-5-2.2-5-5 0-10.7 8.7-19.5 19.5-19.5 2.8 0 5 2.2 5 5v14.5C500.5 310.3 498.3 312.6 495.5 312.6zM487.4 302.6h3.1v-3.1C489.2 300.3 488.2 301.3 487.4 302.6zM39.4 176.8c-.5 0-1.1-.1-1.6-.3-2-.7-3.4-2.6-3.4-4.7v-33c0-2.8 2.2-5 5-5H65c1.9 0 3.7 1.1 4.5 2.8s.6 3.8-.5 5.3l-25.6 33C42.3 176.2 40.9 176.8 39.4 176.8zM44.4 143.9v13.4l10.4-13.4H44.4z" class="color0d0d0d svgShape"></path><path fill="#209fdc" d="M498.8,349.5h-18.6v-10h15.2l6.6-17.4v-64c0-14.5-10.9-26.5-25.4-27.9l-93.1-8.8
				c-1.2-0.1-2.2-0.6-3.1-1.4l-66.6-66.4c-6.4-6.3-14.8-9.8-23.8-9.8H67.4l-24.8,31.9c-11.1,14.2-17.1,32-17.1,50v75.8
				c0,2.8-2.2,5-5,5h-9.7l4.7,33h28.9v10H11.1c-2.5,0-4.6-1.8-5-4.3l-6.1-43c-0.2-1.4,0.2-2.9,1.2-4c1-1.1,2.3-1.7,3.8-1.7h10.5
				v-70.8c0-20.2,6.8-40.1,19.2-56.1l26.3-33.8c0.9-1.2,2.4-1.9,3.9-1.9h225c11.7,0,22.6,4.5,30.9,12.8l65.4,65.1l91.3,8.6
				c19.6,1.8,34.4,18.1,34.4,37.8V323c0,0.6-0.1,1.2-0.3,1.8l-8.2,21.5C502.8,348.2,500.9,349.5,498.8,349.5z" class="color0d0d0d svgShape"></path><rect width="190.3" height="10" x="194" y="339.5" fill="#209fdc" class="color0d0d0d svgShape"></rect><rect width="33.8" height="10" x="140.2" y="339.5" fill="#209fdc" class="color0d0d0d svgShape"></rect></svg></g></svg>